<?xml version="1.0" encoding="utf-8"?>
<svg version="1.1" xmlns:xlink="http://www.w3.org/1999/xlink" width="1070px" height="341px" xmlns="http://www.w3.org/2000/svg">
  <g transform="matrix(1 0 0 1 -115 -94 )">
    <path d="M 115 94  L 1185 94  L 1185 435  L 115 435  L 115 94  " fill-rule="nonzero" fill="#cccccc" stroke="none" />
    <path d="M 139 118  L 1161 118  L 1161 411  L 139 411  L 139 118  " fill-rule="nonzero" fill="#ffffff" stroke="none" />
    <path d="M 696.975 196.3  C 682.653 196.3  671.4 185.047  671.4 170.725  C 671.4 156.403  682.653 145.15  696.975 145.15  C 711.297 145.15  722.55 156.403  722.55 170.725  C 722.55 185.047  711.297 196.3  696.975 196.3  " fill-rule="nonzero" fill="#cccccc" stroke="none" />
    <path d="M 148 403  L 148 251.2  L 399.25 182.2  L 751 350.224672897196  L 952 223.6  L 1153 350.224672897196  L 1153 403  L 148 403  " fill-rule="nonzero" fill="#169bd5" stroke="none" />
  </g>
</svg>