<?xml version="1.0" encoding="utf-8"?>
<svg version="1.1" xmlns:xlink="http://www.w3.org/1999/xlink" width="979px" height="329px" xmlns="http://www.w3.org/2000/svg">
  <g>
    <path d="M 0 0  L 979 0  L 979 329  L 0 329  L 0 0  " fill-rule="nonzero" fill="#cccccc" stroke="none" />
    <path d="M 23 23  L 956 23  L 956 306  L 23 306  L 23 23  " fill-rule="nonzero" fill="#ffffff" stroke="none" />
    <path d="M 533.755 98.7  C 519.937 98.7  509.08 87.843  509.08 74.025  C 509.08 60.207  519.937 49.35  533.755 49.35  C 547.573 49.35  558.43 60.207  558.43 74.025  C 558.43 87.843  547.573 98.7  533.755 98.7  " fill-rule="nonzero" fill="#cccccc" stroke="none" />
    <path d="M 31 298  L 31 151.15  L 260.25 84.4  L 581.2 244.163636363636  L 764.6 124.45  L 948 244.163636363636  L 948 298  L 31 298  " fill-rule="nonzero" fill="#169bd5" stroke="none" />
  </g>
</svg>